Coordinates
version=1
nRows=9
nColumns=42
inDegrees=yes

Units are S.I. units (second, meters, Newtons, ...)
If the header above contains a line with 'inDegrees', this indicates whether rotational values are in degrees (yes) or radians (no).

endheader
time	pelvis_tilt	pelvis_list	pelvis_rotation	pelvis_tx	pelvis_ty	pelvis_tz	hip_flexion_r	hip_adduction_r	hip_rotation_r	knee_angle_r	knee_adduction_r	knee_angle_r_beta	ankle_angle_r	subtalar_angle_r	mtp_angle_r	hip_flexion_l	hip_adduction_l	hip_rotation_l	knee_angle_l	knee_adduction_l	knee_angle_l_beta	ankle_angle_l	subtalar_angle_l	mtp_angle_l	lumbar_extension	lumbar_bending	lumbar_rotation	arm_flex_r	arm_add_r	arm_rot_r	elbow_flex_r	pro_sup_r	wrist_flex_r	wrist_dev_r	arm_flex_l	arm_add_l	arm_rot_l	elbow_flex_l	pro_sup_l	wrist_flex_l	wrist_dev_l
      1.71000000	      8.69094954	      1.89235614	     -1.83819501	     -0.49190704	      0.89674049	      0.20092370	     23.55707269	     -5.61453998	     -2.64835696	     72.65799106	      0.78209160	      1.26812117	      2.23581288	    -14.43636852	     -7.51271698	      6.84513304	      2.56384014	    -23.87617656	     35.39210391	     -4.46003768	      0.61770874	     24.70071912	     27.28173983	     -7.51271698	    -20.55514250	     -0.05043039	     -3.44199854	      1.51467867	     -8.64605595	    -19.44595113	     29.66612864	     90.00000001	      0.00000000	      0.00000000	     -4.25764163	     -7.95265130	    -23.82084557	     39.91664926	     90.00000001	      0.00000000	      0.00000000
      1.72000000	      8.58882649	      1.86625954	     -1.57488024	     -0.48499149	      0.89689752	      0.20057141	     24.65306124	     -5.55616725	     -2.66462611	     70.79752230	      0.90458690	      1.23564987	      2.41558601	    -13.80557889	     -7.51256727	      6.35354363	      2.57846120	    -23.61292582	     35.23066375	     -4.37397039	      0.61489108	     24.75253294	     27.06090893	     -7.51256727	    -20.61028627	      0.07689985	     -3.89852860	      1.21000010	     -8.68343075	    -19.47408390	     29.79495451	     90.00000001	      0.00000000	      0.00000000	     -3.97342262	     -8.11537653	    -23.68942532	     40.14147264	     90.00000001	      0.00000000	      0.00000000
      1.73000000	      8.91284776	      1.57082996	     -1.22584758	     -0.47752568	      0.89771569	      0.20020596	     24.89454360	     -5.29300376	     -3.62477581	     68.36124893	      0.44650667	      1.19312887	      4.01040709	    -11.08769388	     -7.51179502	      5.13065606	      2.36854542	    -23.20299110	     34.64487566	     -4.31100880	      0.60466715	     25.93660865	     28.27928087	     -7.51179502	    -21.10416829	      0.58707838	     -4.22367672	      0.63383870	     -8.61521887	    -20.17063605	     30.59846876	     90.00000001	      0.00000000	      0.00000000	     -3.81156542	     -8.54406876	    -21.99798694	     39.98689833	     90.00000001	      0.00000000	      0.00000000
      1.74000000	      8.71774130	      1.65550564	     -0.94288422	     -0.47050232	      0.89741426	      0.19991531	     25.92663103	     -5.43853248	     -3.66632222	     66.15760137	      0.67563262	      1.15466797	      4.09560338	    -10.55403724	     -7.51165170	      4.79844674	      2.47277115	    -23.05043416	     34.58235418	     -4.28025991	      0.60357594	     25.89268856	     27.98881740	     -7.51165170	    -21.03360886	      0.57604010	     -4.62362624	      0.29204785	     -8.60904144	    -20.18587998	     30.69041712	     90.00000001	      0.00000000	      0.00000000	     -3.55078815	     -8.72325633	    -21.90059734	     40.23048337	     90.00000001	      0.00000000	      0.00000000
      1.75000000	      8.92142182	      1.42501600	     -0.59788779	     -0.46293366	      0.89777399	      0.19961695	     26.10750201	     -5.31180397	     -4.56057305	     63.32742822	      0.42080007	      1.10527213	      5.68159742	     -7.06979098	     -7.51095203	      3.78382096	      2.31475407	    -22.84796252	     34.10082257	     -4.38948567	      0.59517163	     26.78002829	     29.02747409	     -7.51095203	    -21.36105246	      0.98848318	     -4.96181076	     -0.25882642	     -8.54738830	    -20.70092794	     31.28794405	     90.00000001	      0.00000000	      0.00000000	     -3.39434967	     -9.03548794	    -20.71699428	     40.18385461	     90.00000001	      0.00000000	      0.00000000
      1.76000000	      8.74582542	      1.39312143	     -0.26873628	     -0.45564949	      0.89735775	      0.19941374	     26.81087529	     -5.32973799	     -4.65113201	     60.64504625	      0.76120397	      1.05845573	      5.82299798	     -6.41120809	     -7.51078395	      3.39185191	      2.35939862	    -22.61067014	     33.94227657	     -4.51979237	      0.59240448	     26.81183925	     28.81098188	     -7.51078395	    -21.26459740	      1.13730375	     -5.33180535	     -0.69643957	     -8.51219405	    -20.74316896	     31.36558888	     90.00000001	      0.00000000	      0.00000000	     -3.20646463	     -9.15602408	    -20.58186990	     40.38844782	     90.00000001	      0.00000000	      0.00000000
      1.77000000	      8.84513791	      1.33009004	      0.02539089	     -0.44792717	      0.89715543	      0.19925984	     27.03944988	     -5.44449838	     -5.74067796	     57.73513956	      0.42980237	      1.00766828	      7.52273227	     -2.21117522	     -7.51006422	      2.56036997	      2.20540099	    -22.86344031	     33.66892743	     -4.59723012	      0.58763364	     27.52783070	     30.12110266	     -7.51006422	    -21.46120979	      1.32025800	     -5.58450354	     -1.24591851	     -8.43157355	    -21.24725389	     31.89787915	     90.00000001	      0.00000000	      0.00000000	     -2.96985915	     -9.44082333	    -19.65594113	     40.32520405	     90.00000001	      0.00000000	      0.00000000
      1.78000000	      8.78274250	      1.30345109	      0.32840555	     -0.44028243	      0.89662056	      0.19922933	     27.41764593	     -5.54487806	     -6.37894780	     54.84226019	      0.48772502	      0.95717801	      8.38950332	      0.24516526	     -7.50931770	      1.95816551	      2.12657872	    -22.88746913	     33.46561064	     -4.65714103	      0.58408509	     27.89605060	     30.65433165	     -7.50931770	    -21.46499363	      1.43685931	     -5.84618773	     -1.72510583	     -8.32840568	    -21.59781725	     32.08184353	     90.00000001	      0.00000000	      0.00000000	     -2.78420018	     -9.63323080	    -19.18663777	     40.42278421	     90.00000001	      0.00000000	      0.00000000
      1.79000000	      8.68876027	      1.28544365	      0.61805856	     -0.43258117	      0.89590700	      0.19925497	     27.77718123	     -5.67580058	     -6.96287531	     51.97585293	      0.67478518	      0.90714977	      9.21628236	      2.48878850	     -7.50870869	      1.39186306	      2.03854871	    -22.92110492	     33.28035632	     -4.70555875	      0.58085179	     28.38724551	     31.22528752	     -7.50870869	    -21.42452754	      1.54222181	     -6.07391256	     -2.21663361	     -8.24891838	    -21.88626343	     32.29689588	     90.00000001	      0.00000000	      0.00000000	     -2.54672872	     -9.75837300	    -18.89347419	     40.41113336	     90.00000001	      0.00000000	      0.00000000
